<svg data-v-0dd9719b="" version="1.0" xmlns="http://www.w3.org/2000/svg" xmlns:xlink="http://www.w3.org/1999/xlink" width="100%" height="100%" viewBox="0 0 340.000000 250.000000" preserveAspectRatio="xMidYMid meet" color-interpolation-filters="sRGB" style="margin: auto;"> <rect data-v-0dd9719b="" x="0" y="0" width="100%" height="100%" fill="#fff" fill-opacity="1" class="background"></rect> <rect data-v-0dd9719b="" x="0" y="0" width="100%" height="100%" fill="url(#watermark)" fill-opacity="1" class="watermarklayer"></rect> <g data-v-0dd9719b="" fill="#e50012" class="icon-text-wrapper icon-svg-group iconsvg" transform="translate(58.125,98.56291961669922)"><g class="iconsvg-imagesvg" transform="translate(0,0)"><g><rect fill="#e50012" fill-opacity="0" stroke-width="2" x="0" y="0" width="53" height="52.87415950038907" class="image-rect"></rect> <svg x="0" y="0" width="53" height="52.87415950038907" filtersec="colorsb5818460018" class="image-svg-svg primary" style="overflow: visible;"><svg version="1.1" id="图层_1" xmlns="http://www.w3.org/2000/svg" xmlns:xlink="http://www.w3.org/1999/xlink" x="0px" y="0px" viewBox="1.2899999618530273 1.5099999904632568 92.70999908447266 92.48999786376953" enable-background="new 0 0 95 95" xml:space="preserve">
<g>
	<polygon fill="#231815" points="93.67,12.86 50.74,87.23 1.31,1.61 1.29,1.61 1.29,94 93.67,94 	"></polygon>
	<path fill="#E50012" d="M29.77,1.51l32.11,55.62L94,1.51H29.77z M7.59,1.51l32.38,56.08h15.84L23.43,1.51H7.59z"></path>
</g>
</svg></svg> <!----></g></g> <g transform="translate(60,2.803020477294922)"><g data-gra="path-name" fill-rule="" class="tp-name iconsvg-namesvg" transform="translate(0,0)"><g transform="scale(1)"><g><path d="M40.5-23.89L24.34-23.89 24.34-22.59 39.55-22.59 39.55-21.91 39.55-19.26 39.55-13.46Q39.55-12.42 39.17-11.54 38.79-10.66 38.12-9.99 37.44-9.31 36.54-8.93 35.64-8.55 34.6-8.55L34.6-8.55 24.34-8.55 24.34-7.6 38.12-7.6 38.12-4.27 24.34-4.27 24.34-3.24 40.45-3.24 40.45 0.09 0.9 0.09 0.9-3.24 18.27-3.24 18.27-4.27 3.24-4.27 3.24-7.6 18.27-7.6 18.27-8.55 2.92-8.55 2.92-19.26 2.92-21.91 2.92-22.59 18.27-22.59 18.27-23.89 0.99-23.89 0.99-27.18 18.27-27.18 18.27-28.3 2.52-28.08 2.52-31.99 39.15-32.53 39.15-28.57 24.34-28.39 24.34-27.18 40.5-27.18 40.5-23.89ZM18.27-19.26L7.96-19.26 7.96-17.41 18.27-17.41 18.27-19.26ZM7.96-12.06L18.27-12.06 18.27-14.13 7.96-14.13 7.96-12.06ZM24.34-12.06L33.07-12.06Q33.7-12.06 34.11-12.46 34.52-12.87 34.52-13.46L34.52-13.46 34.52-14.13 24.34-14.13 24.34-12.06ZM34.52-19.26L24.34-19.26 24.34-17.41 34.52-17.41 34.52-19.26ZM58.23 0L51.12 0 61.88-16.61 51.97-16.61 51.97-21.06 63.41-21.06 63.41-25.2 69.75-25.2 69.75-21.06 81.18-21.06 81.18-16.61 68.94-16.61 67.23-13.99 71.78-13.99 82.03 0 74.52 0 66.02-12.06 58.23 0ZM50.58-4.81L48.42 0.09 42.16 0.09 44.37-4.81 44.37-30.96 60.66-30.96 59.94-32.53 67.32-32.53 68.04-30.96 82.03-30.96 82.03-26.5 50.58-26.5 50.58-4.81ZM104.31-32.45L109.03-21.24 103.09-21.24 100.17-28.62 92.7-28.62 89.64-21.64 83.7-21.64 88.33-32.45 94.36-32.45 104.31-32.45ZM111.02-30.29L116.19-30.29 116.19-6.17 111.02-6.17 111.02-30.29ZM96.88-11.21L99.85-11.21Q100.48-11.21 100.89-11.61 101.3-12.01 101.3-12.6L101.3-12.6 101.3-15.66 91.71-15.66 91.71-5.67Q91.71-5.04 92.14-4.63 92.56-4.23 93.15-4.23L93.15-4.23 107.46-4.23 105.97 0.04 90.99 0.04Q89.95 0.04 89.05-0.34 88.16-0.72 87.48-1.4 86.8-2.07 86.42-2.97 86.04-3.87 86.04-4.91L86.04-4.91 86.04-19.89 106.97-19.89 106.97-11.88Q106.97-10.84 106.58-9.95 106.2-9.04 105.52-8.37 104.85-7.69 103.95-7.31 103.05-6.93 102.02-6.93L102.02-6.93 95.31-6.93 96.88-11.21ZM123.25-32.49L123.25-4.86Q123.25-3.82 122.87-2.95 122.49-2.07 121.81-1.4 121.14-0.72 120.24-0.34 119.34 0.04 118.3 0.04L118.3 0.04 114.61 0.04 116.28-4.37 116.64-4.37Q117.27-4.37 117.67-4.77 118.08-5.17 118.08-5.8L118.08-5.8 118.08-32.49 123.25-32.49ZM130.68-32.49L134.37-22.36 131.63-22.36 134.37-14.89 128.83-14.89 125.14-25.02 127.89-25.02 125.14-32.49 130.68-32.49ZM125.14 0.14L128.83-12.78 134.37-12.78 130.68 0.14 125.14 0.14ZM144.99-32.53L145.26-29.52 149.98-29.52 149.98-24.93 142.02-24.93 141.79-21.46 149.98-21.46 149.98-21.2 149.98-16.88 149.98-4.95Q149.98-3.92 149.6-3.01 149.22-2.11 148.54-1.44 147.87-0.77 146.97-0.38 146.07 0 145.03 0L145.03 0 140.94 0 142.38-3.92 142.88-3.92Q143.46-3.92 143.86-4.32 144.27-4.72 144.27-5.31L144.27-5.31 144.27-16.88 141.52-16.88 140.53 0 135.13 0 136.62-24.93 135.41-24.93 135.41-29.52 140.31-29.52 140.04-32.53 144.99-32.53ZM159.3-32.49L158.67-29.74 164.65-29.74 164.65-25.15 157.54-25.15 152.77-25.15 151.29-25.15 153.09-32.49 159.3-32.49ZM164.65-23.58L161.28-15.39 161.28-13.18 164.65-13.18 164.65-8.59 161.28-8.59 161.28-4.95Q161.28-3.92 160.9-3.01 160.51-2.11 159.84-1.44 159.16-0.77 158.26-0.38 157.36 0 156.33 0L156.33 0 151.29 0 152.69-3.92 154.3-3.92Q154.89-3.92 155.32-4.32 155.74-4.72 155.74-5.31L155.74-5.31 155.74-8.59 151.29-8.59 151.29-13.18 155.74-13.18 155.74-15.39 157.36-18.99 151.29-18.99 151.29-23.58 159.84-23.58 161.77-23.58 164.65-23.58Z" transform="translate(-0.9000000357627869, 32.529998779296875)"></path></g> <!----> <!----> <!----> <!----> <!----> <!----> <!----></g></g> <g data-gra="path-slogan" fill-rule="" class="tp-slogan iconsvg-slogansvg" fill="#231815" transform="translate(1.9300003051757812,37.66999816894531)"><rect width="0"></rect> <rect x="162.88999938964844" width="0"></rect> <g transform="translate(0,0)"><g transform="scale(1)"><path d="M7.39-5.54L7.39-5.54L6.36-5.54Q5.97-7.13 4.17-7.18L4.17-7.18Q1.68-7.05 1.59-4.00L1.59-4.00Q1.59-0.73 4.21-0.73L4.21-0.73Q6.02-0.77 6.45-2.92L6.45-2.92L7.48-2.92Q7.00 0.04 4.00 0.13L4.00 0.13Q0.56 0 0.47-3.95L0.47-3.95Q0.64-7.91 4.17-8.08L4.17-8.08Q6.96-7.99 7.39-5.54ZM10.80-4.64L14.92-4.64L14.92-7.86L16.00-7.86L16.00 0L14.92 0L14.92-3.65L10.80-3.65L10.80 0L9.72 0L9.72-7.86L10.80-7.86L10.80-4.64ZM24.86-3.91L24.86-3.91Q24.69-7.00 22.11-7.18L22.11-7.18Q19.49-7.05 19.36-3.91L19.36-3.91Q19.49-0.86 22.11-0.73L22.11-0.73Q24.69-0.90 24.86-3.91ZM25.93-3.91L25.93-3.91Q25.68 0 22.11 0.13L22.11 0.13Q18.50 0 18.24-3.91L18.24-3.91Q18.46-7.99 22.11-8.08L22.11-8.08Q25.68-7.95 25.93-3.91ZM29.47-7.86L33.42-1.50L33.42-7.86L34.45-7.86L34.45 0L33.25 0L29.25-6.36L29.21-6.36L29.21 0L28.18 0L28.18-7.86L29.47-7.86ZM42.97-3.31L40.57-3.31L40.57-4.21L44.00-4.21L44.00 0L43.32 0L43.06-0.99Q42.16 0.09 40.48 0.13L40.48 0.13Q38.89 0.13 38.03-0.69L38.03-0.69Q36.74-1.89 36.79-4.00L36.79-4.00Q37.09-7.91 40.52-8.08L40.52-8.08Q43.45-7.91 43.88-5.50L43.88-5.50L42.84-5.50Q42.41-7.13 40.48-7.18L40.48-7.18Q38.03-7.00 37.90-3.95L37.90-3.95Q37.90-0.69 40.52-0.69L40.52-0.69Q41.47-0.69 42.16-1.20L42.16-1.20Q43.02-1.89 42.97-3.31L42.97-3.31ZM51.23-0.99L50.42-1.63L50.98-2.28L51.96-1.50Q52.87-2.41 52.87-3.91L52.87-3.91Q52.70-7.00 50.12-7.18L50.12-7.18Q47.50-7.05 47.37-3.91L47.37-3.91Q47.50-0.86 50.12-0.73L50.12-0.73Q50.76-0.73 51.23-0.99L51.23-0.99ZM52.82-0.86L53.86-0.04L53.34 0.52L52.14-0.30Q51.36 0.13 50.12 0.13L50.12 0.13Q46.51 0 46.25-3.91L46.25-3.91Q46.46-7.99 50.12-8.08L50.12-8.08Q53.68-7.95 53.94-3.91L53.94-3.91Q53.90-2.02 52.82-0.86L52.82-0.86ZM56.36-7.86L57.43-7.86L57.43 0L56.36 0L56.36-7.86ZM61.53-7.86L65.48-1.50L65.48-7.86L66.51-7.86L66.51 0L65.31 0L61.31-6.36L61.27-6.36L61.27 0L60.24 0L60.24-7.86L61.53-7.86ZM75.03-3.31L72.63-3.31L72.63-4.21L76.06-4.21L76.06 0L75.38 0L75.12-0.99Q74.21 0.09 72.54 0.13L72.54 0.13Q70.95 0.13 70.09-0.69L70.09-0.69Q68.80-1.89 68.84-4.00L68.84-4.00Q69.14-7.91 72.58-8.08L72.58-8.08Q75.50-7.91 75.93-5.50L75.93-5.50L74.90-5.50Q74.47-7.13 72.54-7.18L72.54-7.18Q70.09-7.00 69.96-3.95L69.96-3.95Q69.96-0.69 72.58-0.69L72.58-0.69Q73.53-0.69 74.21-1.20L74.21-1.20Q75.07-1.89 75.03-3.31L75.03-3.31ZM89.32-5.54L89.32-5.54L88.29-5.54Q87.90-7.13 86.10-7.18L86.10-7.18Q83.61-7.05 83.52-4.00L83.52-4.00Q83.52-0.73 86.14-0.73L86.14-0.73Q87.95-0.77 88.38-2.92L88.38-2.92L89.41-2.92Q88.93 0.04 85.93 0.13L85.93 0.13Q82.49 0 82.40-3.95L82.40-3.95Q82.57-7.91 86.10-8.08L86.10-8.08Q88.89-7.99 89.32-5.54ZM92.73-4.64L96.85-4.64L96.85-7.86L97.93-7.86L97.93 0L96.85 0L96.85-3.65L92.73-3.65L92.73 0L91.65 0L91.65-7.86L92.73-7.86L92.73-4.64ZM105.76-2.92L105.76-7.86L106.83-7.86L106.83-2.79Q106.70 0.04 103.61 0.13L103.61 0.13Q100.73 0.04 100.60-2.62L100.60-2.62L100.60-7.86L101.68-7.86L101.68-2.92Q101.72-0.77 103.65-0.73L103.65-0.73Q105.76-0.77 105.76-2.92L105.76-2.92ZM114.66 0L113.89-2.28L110.71-2.28L109.89 0L108.82 0L111.79-7.86L112.99-7.86L115.82 0L114.66 0ZM112.30-6.70L111.05-3.22L113.50-3.22L112.34-6.70L112.30-6.70ZM119.06-7.86L123.01-1.50L123.01-7.86L124.04-7.86L124.04 0L122.84 0L118.84-6.36L118.80-6.36L118.80 0L117.77 0L117.77-7.86L119.06-7.86ZM132.56-3.31L130.16-3.31L130.16-4.21L133.59-4.21L133.59 0L132.91 0L132.65-0.99Q131.75 0.09 130.07 0.13L130.07 0.13Q128.48 0.13 127.62-0.69L127.62-0.69Q126.33-1.89 126.38-4.00L126.38-4.00Q126.68-7.91 130.11-8.08L130.11-8.08Q133.04-7.91 133.46-5.50L133.46-5.50L132.43-5.50Q132.00-7.13 130.07-7.18L130.07-7.18Q127.62-7.00 127.49-3.95L127.49-3.95Q127.49-0.69 130.11-0.69L130.11-0.69Q131.06-0.69 131.75-1.20L131.75-1.20Q132.61-1.89 132.56-3.31L132.56-3.31ZM142.59-7.86L139.62-3.18L139.62 0L138.55 0L138.55-3.18L135.58-7.86L136.83-7.86L139.06-4.08L141.34-7.86L142.59-7.86ZM150.76-3.91L150.76-3.91Q150.59-7.00 148.01-7.18L148.01-7.18Q145.39-7.05 145.26-3.91L145.26-3.91Q145.39-0.86 148.01-0.73L148.01-0.73Q150.59-0.90 150.76-3.91ZM151.84-3.91L151.84-3.91Q151.58 0 148.01 0.13L148.01 0.13Q144.40 0 144.14-3.91L144.14-3.91Q144.36-7.99 148.01-8.08L148.01-8.08Q151.58-7.95 151.84-3.91ZM159.28-2.92L159.28-7.86L160.36-7.86L160.36-2.79Q160.23 0.04 157.13 0.13L157.13 0.13Q154.25 0.04 154.13-2.62L154.13-2.62L154.13-7.86L155.20-7.86L155.20-2.92Q155.24-0.77 157.18-0.73L157.18-0.73Q159.28-0.77 159.28-2.92L159.28-2.92Z" transform="translate(-0.47265625, 8.078125)"></path></g></g></g></g></g><defs v-gra="od"></defs></svg>